<?xml version="1.0" encoding="UTF-8"?>
<svg id="Layer_1" xmlns="http://www.w3.org/2000/svg" version="1.1" viewBox="0 0 1440 900">
  <!-- Generator: Adobe Illustrator 29.0.0, SVG Export Plug-In . SVG Version: 2.1.0 Build 186)  -->
  <defs>
    <style>
      .st0 {
        fill: #ffcc01;
      }
    </style>
  </defs>
  <rect class="st0" x="144.7" y="571.87" width="298.19" height="51.76"/>
  <rect x="386.55" y="572.03" width="1.41" height="51.23"/>
  <path d="M156.07,607.98v-20.76h8.71c1.32,0,2.49.21,3.51.64,1.02.42,1.83,1.09,2.42,2s.88,2.09.88,3.54-.29,2.63-.88,3.54c-.59.91-1.4,1.58-2.42,2-1.03.43-2.2.64-3.51.64h-5.43v8.39h-3.28ZM164.6,596.77c.79,0,1.46-.12,1.99-.36s.93-.61,1.19-1.1c.26-.49.39-1.13.39-1.9,0-1.16-.3-2.01-.88-2.56-.59-.54-1.49-.81-2.69-.81h-5.26v6.74h5.26Z"/>
  <path d="M174.62,607.98v-20.76h3.28v17.94h10.45v2.82h-13.73Z"/>
  <path d="M204.9,607.98l-1.71-4.96h-8.59l-1.71,4.96h-3.46l7.72-20.76h3.54l7.78,20.76h-3.57,0ZM202.23,600.26l-3.31-9.52h-.06l-3.31,9.52h6.68Z"/>
  <path d="M213.23,607.98v-8.27l-7.43-12.48h3.8l5.25,9.09h.06l5.28-9.09h3.77l-7.43,12.48v8.27h-3.31,0,0Z"/>
  <path d="M237.93,607.98v-17.94h-6.68v-2.81h16.66v2.81h-6.68v17.94h-3.31,0Z"/>
  <path d="M250.65,607.98v-20.76h3.28v8.65h10.04v-8.65h3.31v20.76h-3.31v-9.29h-10.04v9.29h-3.28Z"/>
  <path d="M271.58,607.98v-20.76h14.72v2.81h-11.44v5.81h10.02v2.81h-10.02v6.5h11.73v2.82h-15.01Z"/>
  <path d="M304.32,608.41c-1.99,0-3.69-.46-5.09-1.39s-2.47-2.21-3.19-3.85c-.73-1.64-1.09-3.5-1.09-5.59,0-1.57.23-3.01.68-4.32.45-1.32,1.11-2.46,1.96-3.42.85-.97,1.88-1.72,3.08-2.25,1.2-.53,2.54-.8,4.03-.8,1.8,0,3.32.29,4.56.88s2.22,1.4,2.93,2.44c.72,1.04,1.18,2.21,1.39,3.53h-3.4c-.17-.85-.5-1.58-.99-2.18s-1.1-1.05-1.86-1.36c-.76-.31-1.64-.46-2.67-.46-1.14,0-2.12.23-2.92.68-.8.46-1.45,1.07-1.95,1.83-.49.76-.86,1.62-1.09,2.57s-.35,1.91-.35,2.87.1,1.95.29,2.89.52,1.8.97,2.57,1.08,1.39,1.87,1.84,1.79.68,2.99.68,2.17-.24,3.08-.73c.91-.48,1.64-1.16,2.19-2.03s.83-1.87.83-2.99h-6.04v-2.7h9.38v10.86h-3.05v-2.5h-.06c-.72.93-1.59,1.65-2.61,2.16-1.03.51-2.32.77-3.89.77h.02Z"/>
  <path d="M331.41,607.98l-1.71-4.96h-8.59l-1.71,4.96h-3.46l7.72-20.76h3.54l7.78,20.76h-3.57ZM328.74,600.26l-3.31-9.52h-.06l-3.31,9.52h6.68Z"/>
  <path d="M337.62,607.98v-20.76h4.3l5.92,16.2h.06l5.92-16.2h4.3v20.76h-3.22v-16h-.06l-5.63,16h-2.67l-5.63-16h-.06v16h-3.23,0Z"/>
  <path d="M362.41,607.98v-20.76h14.72v2.81h-11.44v5.81h10.02v2.81h-10.02v6.5h11.73v2.82h-15.01Z"/>
  <polygon points="410.69 590.01 410.69 592.13 419.85 592.13 406.94 605.03 408.44 606.53 421.62 593.36 421.62 603.06 423.74 603.06 423.74 590.01 410.69 590.01"/>
</svg>